<svg width="23" height="23" viewBox="0 0 23 23" fill="none" xmlns="http://www.w3.org/2000/svg">
<path id="Vector" d="M12.9907 21.4128L11.9414 22.6076C11.4971 23.1135 10.7552 23.1353 10.2868 22.6563L0.499205 12.7577C0.0259275 12.2788 0.0024947 11.4826 0.446943 10.9819L9.63533 0.51955C10.0796 0.0136533 10.8215 -0.0081801 11.2899 0.470855L12.4076 1.60185C12.8859 2.08584 12.9001 2.89805 12.441 3.39914L6.73672 9.58572L20.7638 9.17289C21.413 9.15379 21.9517 9.69891 21.9722 10.3956L22.0215 12.0718C22.0421 12.7685 21.5363 13.3444 20.8872 13.3635L6.86005 13.7763L12.9183 19.6167C13.4109 20.0898 13.4446 20.9014 12.9907 21.4128Z" fill="#341616"/>
</svg>
